# xmcd CD database file
#
# Track frame offsets:
#	150
#	24495
#	46048
#
# Disc length: 935 seconds
#
# Revision: 0
# Processed by: cddbd v1.5.2PL0 Copyright (c) Steve Scherf et al.
# Submitted via: CDex 1.50beta9
#
DISCID=1703a503
DTITLE=今井　美樹 - 瞳がほほえむから
DYEAR=1989
DGENRE=JPop
TTITLE0=瞳がほほえむから
TTITLE1=明るくなるまで
TTITLE2=瞳がほほえむから
EXTD=YEAR: 1989
EXTT0=
EXTT1=
EXTT2=
PLAYORDER=
